<svg xmlns="http://www.w3.org/2000/svg" width="200" height="40" viewBox="0 0 200 40"><path fill="#F84644" d="M9 14h22v2H9z"/><path fill="#464C50" d="M33 9v22H7V9h26m2-2H5v26h30V7z"/><path fill="#F84644" d="M57 17l-3 8 8-3.1 3.1-8L57 17z"/><path fill="#464C50" d="M113 8v17H92.3l-.5.4-5.8 4.5V8h27m2-2H84v28l9-7h22V6z"/><path fill="#F84644" d="M93 15h13v2H93z"/><path fill="#464C50" d="M153 10v21h-26V10h26m2-2h-30v25h30V8z"/><path fill="#464C50" d="M131 5h3v4.9h-3zM146 5h3v4.9h-3z"/><path fill="#F84644" d="M173.1 21h2v6h-2zM179 18h2v9h-2zM185.1 15h2v12h-2z"/><path fill="#464C50" d="M192.1 9v22h-24V9h24m2-2h-28v26h28V7z"/><circle fill="none" stroke="#464C50" stroke-width="2" stroke-miterlimit="10" cx="59.5" cy="19.5" r="13.5"/><path fill="#F84644" d="M147.2 16.1l-1.4-1.4-7.8 7.8-3.8-3.8-1.4 1.4 5.2 5.2"/></svg>